<svg xmlns:x="http://ns.adobe.com/Extensibility/1.0/" xmlns:i="http://ns.adobe.com/AdobeIllustrator/10.0/" xmlns:graph="http://ns.adobe.com/Graphs/1.0/" xmlns="http://www.w3.org/2000/svg" xmlns:xlink="http://www.w3.org/1999/xlink" version="1.1" x="0px" y="0px" width="100px" height="100px" viewBox="5.0 -10.0 100.0 135.0" enable-background="new 0 0 100 100" xml:space="preserve">
<metadata>
	<sfw xmlns="http://ns.adobe.com/SaveForWeb/1.0/">
		<slices/>
		<sliceSourceBounds height="1780.628" width="870" bottomLeftOrigin="true" x="-192" y="-1744.628"/>
	</sfw>
</metadata>
<g id="Captions">
</g>
<g id="Your_Icon">
	<path fill="#636058" d="M85.262,35.414c-0.229-0.99-0.497-2.009-0.787-3.045c-0.103-0.358-0.219-0.728-0.327-1.093   c-0.206-0.684-0.414-1.369-0.643-2.067c-0.146-0.443-0.302-0.889-0.457-1.334c-0.218-0.637-0.447-1.273-0.688-1.919   c-0.178-0.483-0.36-0.966-0.55-1.451c-0.241-0.624-0.496-1.248-0.757-1.876c-0.208-0.503-0.412-1.006-0.629-1.512   c-0.271-0.63-0.56-1.265-0.849-1.896c-0.227-0.503-0.443-1.004-0.681-1.507c-0.495-1.051-1.011-2.104-1.545-3.155   c-0.293-0.578-0.605-1.15-0.908-1.728c-0.238-0.45-0.468-0.904-0.714-1.354l-0.362-0.664c-0.032-0.06-0.063-0.119-0.096-0.178   l-0.825-1.512L74.43,9.181c-0.396-0.689-0.785-1.384-1.194-2.064L71.962,5l-2.703,9.14l-9.639-3.823l-3.598,5.725l-16.707-4.653   l-1.011,8.121l-5.859,0.049l-5.366,8.54l-4.465-2.252l-9.567,8.304l-0.521,17.597l-0.04,0.139l0.031,0.138v0.002l0.032,0.136   c3.425,14.872,8.516,24.606,17.569,33.603C37.807,93.397,46.637,95,52.691,95c2.609,0,5.232-0.299,7.801-0.89   c10.728-2.47,19.731-10.708,23.5-21.497C88.256,60.4,88.612,49.973,85.262,35.414z M81.942,71.896   C78.416,81.987,70.01,89.688,60.004,91.993c-2.406,0.554-4.868,0.834-7.312,0.834c-5.646,0-13.879-1.492-21.041-8.605   c-1.087-1.078-2.112-2.169-3.084-3.278c-0.577-0.66-1.1-1.344-1.639-2.019c-0.369-0.463-0.768-0.912-1.122-1.384   c-0.456-0.609-0.864-1.252-1.292-1.878c-0.387-0.564-0.799-1.114-1.166-1.693c-0.358-0.571-0.677-1.178-1.016-1.764   c-0.389-0.675-0.798-1.328-1.163-2.026c-0.28-0.533-0.524-1.105-0.79-1.655c-0.384-0.796-0.783-1.572-1.14-2.404   c-0.214-0.497-0.4-1.04-0.604-1.552c-0.373-0.93-0.756-1.844-1.1-2.824c-0.176-0.503-0.328-1.055-0.498-1.572   c-0.342-1.038-0.688-2.065-1-3.165c-0.165-0.574-0.308-1.205-0.465-1.797c-0.286-1.076-0.577-2.135-0.84-3.271l3.452-11.888   l8.602,8.584l9.755-13.682l16.158,3.258l4.508-10.798l14.159,0.912l3.722-13.398c0.145,0.275,0.284,0.554,0.425,0.829   c0.282,0.561,0.566,1.119,0.838,1.677c0.229,0.474,0.445,0.944,0.666,1.418c0.354,0.755,0.701,1.511,1.034,2.262   c0.308,0.7,0.615,1.398,0.904,2.093c0.178,0.433,0.344,0.859,0.516,1.288c0.229,0.577,0.46,1.154,0.675,1.726   c0.159,0.42,0.31,0.838,0.46,1.256c0.212,0.584,0.416,1.165,0.609,1.74c0.132,0.386,0.261,0.772,0.384,1.154   c0.202,0.635,0.393,1.261,0.573,1.883c0.091,0.31,0.188,0.623,0.273,0.929c0.257,0.924,0.495,1.834,0.698,2.721   C86.393,50.02,86.056,60.11,81.942,71.896z"/>
</g>
</svg>